<svg xmlns="http://www.w3.org/2000/svg" xmlns:xlink="http://www.w3.org/1999/xlink" fill="none" version="1.1" width="22" height="22" viewBox="0 0 22 22"><g><g><g style="opacity:0.20000000298023224;"></g><g transform="matrix(0,1,-1,0,22.72094488143921,-20.041452884674072)"><path d="M33.04149888305664,20.56624599838257C33.04149888305664,20.56624599838257,32.54149888305664,19.700245998382567,32.54149888305664,19.700245998382567C32.54149888305664,19.700245998382567,33.04149888305664,20.56624599838257,33.04149888305664,20.56624599838257C33.04149888305664,20.56624599838257,33.04149888305664,20.56624599838257,33.04149888305664,20.56624599838257ZM29.04144888305664,20.56624599838257C29.04144888305664,20.56624599838257,28.54144888305664,21.43224599838257,28.54144888305664,21.43224599838257C28.54144888305664,21.43224599838257,29.04144888305664,20.56624599838257,29.04144888305664,20.56624599838257C29.04144888305664,20.56624599838257,29.04144888305664,20.56624599838257,29.04144888305664,20.56624599838257ZM37.70179888305664,17.87564599838257C37.70179888305664,17.87564599838257,38.20179888305664,18.74164599838257,38.20179888305664,18.74164599838257C38.20179888305664,18.74164599838257,37.70179888305664,17.87564599838257,37.70179888305664,17.87564599838257C37.70179888305664,17.87564599838257,37.70179888305664,17.87564599838257,37.70179888305664,17.87564599838257ZM29.04144888305664,2.875645998382568C29.04144888305664,2.875645998382568,28.54144888305664,2.0096189983825683,28.54144888305664,2.0096189983825683C28.54144888305664,2.0096189983825683,29.04144888305664,2.875645998382568,29.04144888305664,2.875645998382568C29.04144888305664,2.875645998382568,29.04144888305664,2.875645998382568,29.04144888305664,2.875645998382568ZM32.54149888305664,3.7416759983825685C32.54149888305664,3.7416759983825685,37.20179888305664,6.432265998382569,37.20179888305664,6.432265998382569C37.20179888305664,6.432265998382569,38.20179888305664,4.700215998382568,38.20179888305664,4.700215998382568C38.20179888305664,4.700215998382568,33.54149888305664,2.0096189983825683,33.54149888305664,2.0096189983825683C33.54149888305664,2.0096189983825683,32.54149888305664,3.7416759983825685,32.54149888305664,3.7416759983825685C32.54149888305664,3.7416759983825685,32.54149888305664,3.7416759983825685,32.54149888305664,3.7416759983825685ZM38.70179888305664,9.030345998382568C38.70179888305664,9.030345998382568,38.70179888305664,14.411545998382568,38.70179888305664,14.411545998382568C38.70179888305664,14.411545998382568,40.70179888305664,14.411545998382568,40.70179888305664,14.411545998382568C40.70179888305664,14.411545998382568,40.70179888305664,9.030345998382568,40.70179888305664,9.030345998382568C40.70179888305664,9.030345998382568,38.70179888305664,9.030345998382568,38.70179888305664,9.030345998382568C38.70179888305664,9.030345998382568,38.70179888305664,9.030345998382568,38.70179888305664,9.030345998382568ZM37.20179888305664,17.009645998382567C37.20179888305664,17.009645998382567,32.54149888305664,19.700245998382567,32.54149888305664,19.700245998382567C32.54149888305664,19.700245998382567,33.54149888305664,21.43224599838257,33.54149888305664,21.43224599838257C33.54149888305664,21.43224599838257,38.20179888305664,18.74164599838257,38.20179888305664,18.74164599838257C38.20179888305664,18.74164599838257,37.20179888305664,17.009645998382567,37.20179888305664,17.009645998382567C37.20179888305664,17.009645998382567,37.20179888305664,17.009645998382567,37.20179888305664,17.009645998382567ZM29.54144888305664,19.700245998382567C29.54144888305664,19.700245998382567,24.88119888305664,17.009645998382567,24.88119888305664,17.009645998382567C24.88119888305664,17.009645998382567,23.88119888305664,18.74164599838257,23.88119888305664,18.74164599838257C23.88119888305664,18.74164599838257,28.54144888305664,21.43224599838257,28.54144888305664,21.43224599838257C28.54144888305664,21.43224599838257,29.54144888305664,19.700245998382567,29.54144888305664,19.700245998382567C29.54144888305664,19.700245998382567,29.54144888305664,19.700245998382567,29.54144888305664,19.700245998382567ZM23.38119888305664,14.411545998382568C23.38119888305664,14.411545998382568,23.38119888305664,9.030345998382568,23.38119888305664,9.030345998382568C23.38119888305664,9.030345998382568,21.38119888305664,9.030345998382568,21.38119888305664,9.030345998382568C21.38119888305664,9.030345998382568,21.38119888305664,14.411545998382568,21.38119888305664,14.411545998382568C21.38119888305664,14.411545998382568,23.38119888305664,14.411545998382568,23.38119888305664,14.411545998382568C23.38119888305664,14.411545998382568,23.38119888305664,14.411545998382568,23.38119888305664,14.411545998382568ZM24.88119888305664,6.432265998382569C24.88119888305664,6.432265998382569,29.54144888305664,3.7416759983825685,29.54144888305664,3.7416759983825685C29.54144888305664,3.7416759983825685,28.54144888305664,2.0096189983825683,28.54144888305664,2.0096189983825683C28.54144888305664,2.0096189983825683,23.88119888305664,4.700215998382568,23.88119888305664,4.700215998382568C23.88119888305664,4.700215998382568,24.88119888305664,6.432265998382569,24.88119888305664,6.432265998382569C24.88119888305664,6.432265998382569,24.88119888305664,6.432265998382569,24.88119888305664,6.432265998382569ZM23.38119888305664,9.030345998382568C23.38119888305664,7.958545998382569,23.95298888305664,6.968165998382569,24.88119888305664,6.432265998382569C24.88119888305664,6.432265998382569,23.88119888305664,4.700215998382568,23.88119888305664,4.700215998382568C22.33419288305664,5.593385998382568,21.38119888305664,7.244015998382569,21.38119888305664,9.030345998382568C21.38119888305664,9.030345998382568,23.38119888305664,9.030345998382568,23.38119888305664,9.030345998382568C23.38119888305664,9.030345998382568,23.38119888305664,9.030345998382568,23.38119888305664,9.030345998382568ZM24.88119888305664,17.009645998382567C23.95298888305664,16.47374599838257,23.38119888305664,15.483345998382568,23.38119888305664,14.411545998382568C23.38119888305664,14.411545998382568,21.38119888305664,14.411545998382568,21.38119888305664,14.411545998382568C21.38119888305664,16.19784599838257,22.33419288305664,17.84854599838257,23.88119888305664,18.74164599838257C23.88119888305664,18.74164599838257,24.88119888305664,17.009645998382567,24.88119888305664,17.009645998382567C24.88119888305664,17.009645998382567,24.88119888305664,17.009645998382567,24.88119888305664,17.009645998382567ZM32.54149888305664,19.700245998382567C31.613298883056643,20.236145998382568,30.469648883056642,20.236145998382568,29.54144888305664,19.700245998382567C29.54144888305664,19.700245998382567,28.54144888305664,21.43224599838257,28.54144888305664,21.43224599838257C30.08845888305664,22.32544599838257,31.994498883056643,22.32544599838257,33.54149888305664,21.43224599838257C33.54149888305664,21.43224599838257,32.54149888305664,19.700245998382567,32.54149888305664,19.700245998382567C32.54149888305664,19.700245998382567,32.54149888305664,19.700245998382567,32.54149888305664,19.700245998382567ZM38.70179888305664,14.411545998382568C38.70179888305664,15.483345998382568,38.12999888305664,16.47374599838257,37.20179888305664,17.009645998382567C37.20179888305664,17.009645998382567,38.20179888305664,18.74164599838257,38.20179888305664,18.74164599838257C39.74879888305664,17.84854599838257,40.70179888305664,16.19784599838257,40.70179888305664,14.411545998382568C40.70179888305664,14.411545998382568,38.70179888305664,14.411545998382568,38.70179888305664,14.411545998382568C38.70179888305664,14.411545998382568,38.70179888305664,14.411545998382568,38.70179888305664,14.411545998382568ZM37.20179888305664,6.432265998382569C38.12999888305664,6.968165998382569,38.70179888305664,7.958545998382569,38.70179888305664,9.030345998382568C38.70179888305664,9.030345998382568,40.70179888305664,9.030345998382568,40.70179888305664,9.030345998382568C40.70179888305664,7.244015998382569,39.74879888305664,5.593385998382568,38.20179888305664,4.700215998382568C38.20179888305664,4.700215998382568,37.20179888305664,6.432265998382569,37.20179888305664,6.432265998382569C37.20179888305664,6.432265998382569,37.20179888305664,6.432265998382569,37.20179888305664,6.432265998382569ZM33.54149888305664,2.0096189983825683C31.994498883056643,1.1164549983825685,30.08845888305664,1.1164549983825685,28.54144888305664,2.0096189983825683C28.54144888305664,2.0096189983825683,29.54144888305664,3.7416759983825685,29.54144888305664,3.7416759983825685C30.469648883056642,3.2057759983825687,31.613298883056643,3.2057759983825687,32.54149888305664,3.7416759983825685C32.54149888305664,3.7416759983825685,33.54149888305664,2.0096189983825683,33.54149888305664,2.0096189983825683C33.54149888305664,2.0096189983825683,33.54149888305664,2.0096189983825683,33.54149888305664,2.0096189983825683Z" fill="#0B1526" fill-opacity="1"/></g><g><ellipse cx="11" cy="11" rx="2" ry="2" fill-opacity="0" stroke-opacity="1" stroke="#0B1526" fill="none" stroke-width="2"/></g></g></g></svg>