<svg xmlns="http://www.w3.org/2000/svg" xmlns:xlink="http://www.w3.org/1999/xlink" fill="none" version="1.1" width="24" height="24" viewBox="0 0 24 24"><g><g></g><g><g><path d="M8.000001428070068,7.5775758028030396C8.000001428070068,7.5775758028030396,8.000001428070068,18.02757580280304,8.000001428070068,18.02757580280304C8.000001428070068,18.579875802803038,7.552281428070068,19.02757580280304,7.000001428070068,19.02757580280304C7.000001428070068,19.02757580280304,4.190091428070068,19.02757580280304,4.190091428070068,19.02757580280304C3.3331504280700686,19.02757580280304,2.8438794280700685,17.99587580280304,3.3476604280700686,17.30260580280304C4.008640428070068,16.39306580280304,4.806041428070069,15.199215802803039,5.482421428070069,13.90844580280304C6.9419114280700684,11.12325580280304,8.000001428070068,7.5775758028030396,8.000001428070068,7.5775758028030396C8.000001428070068,7.5775758028030396,8.000001428070068,7.5775758028030396,8.000001428070068,7.5775758028030396Z" fill-rule="evenodd" fill="#D0D3DE" fill-opacity="1"/><path d="M6.348241428070068,9.35814580280304Q5.477391428070068,11.76357580280304,4.596661428070068,13.44429580280304Q3.772715428070068,15.01667580280304,2.5386934280700686,16.714745802803037Q1.8077414280700683,17.72067580280304,2.358167428070068,18.86007580280304Q2.6051084280700683,19.37127580280304,3.0646023280700683,19.68297580280304Q3.572377428070068,20.02757580280304,4.190091428070068,20.02757580280304L7.000001428070068,20.02757580280304Q7.828421428070069,20.02757580280304,8.414211428070068,19.44177580280304Q9.000001428070068,18.855975802803037,9.000001428070068,18.02757580280304L9.000001428070068,7.5775758028030396Q9.000001428070068,7.49735480280304,8.987211428070069,7.418159802803039Q8.97442142807007,7.33896480280304,8.949171428070068,7.26282080280304Q8.923921428070068,7.18667780280304,8.886861428070068,7.11553280280304Q8.849791428070068,7.04438880280304,8.801861428070069,6.980062802803039Q8.753921428070068,6.91573680280304,8.696351428070068,6.85987480280304Q8.638771428070068,6.804012802803039,8.573031428070069,6.75804380280304Q8.507291428070069,6.712073802803039,8.435061428070068,6.67717380280304Q8.362831428070068,6.642272802803039,8.285951428070067,6.61933280280304Q8.095351428070067,6.56245580280304,7.897481428070068,6.58284480280304Q7.699621428070069,6.60323580280304,7.524621428070068,6.697794802803039Q7.349621428070068,6.7923538028030395,7.224131428070068,6.946683802803039Q7.098641428070069,7.101013802803039,7.041761428070068,7.291620802803039Q6.785441428070069,8.15054580280304,6.348241428070068,9.35814580280304ZM4.156631428070068,17.89047580280304Q5.476461428070069,16.07430580280304,6.368181428070068,14.37259580280304Q6.685591428070069,13.76685580280304,7.000001428070068,13.07827580280304L7.000001428070068,18.02757580280304L4.190091428070068,18.02757580280304Q4.177151428070069,18.02757580280304,4.1590414280700685,17.99007580280304Q4.1291704280700685,17.92827580280304,4.156631428070068,17.89047580280304Z" fill-rule="evenodd" fill="#D0D3DE" fill-opacity="1"/></g><g><rect x="6" y="21.497655034065247" width="12" height="2" rx="1" fill="#D0D3DE" fill-opacity="1"/></g><g><path d="M11.62000036239624,2.761846455085754C11.62000036239624,2.761846455085754,11.62000036239624,18.030033455085754,11.62000036239624,18.030033455085754C11.62000036239624,18.582333455085756,12.06771536239624,19.030033455085754,12.62000036239624,19.030033455085754C12.62000036239624,19.030033455085754,21.30821036239624,19.030033455085754,21.30821036239624,19.030033455085754C21.75030036239624,19.030033455085754,22.10860036239624,18.568033455085754,22.10860036239624,17.998233455085753C22.10860036239624,17.790333455085754,22.48470036239624,14.490933455085754,18.91461036239624,9.407473455085753C15.344540362396241,4.3239734550857545,12.33325836239624,1.5885694550857543,11.96842936239624,1.9103373550857543C11.75038036239624,2.1026504550857545,11.62000036239624,2.4212784550857545,11.62000036239624,2.761846455085754C11.62000036239624,2.761846455085754,11.62000036239624,2.761846455085754,11.62000036239624,2.761846455085754Z" fill-rule="evenodd" fill="#D0D3DE" fill-opacity="1"/><path d="M13.30377036239624,1.4297504550857543Q12.05677436239624,0.4990534550857544,11.30697036239624,1.1603574550857543L11.30696836239624,1.1603574550857543Q10.62000036239624,1.7662444550857543,10.62000036239624,2.761846455085754L10.62000036239624,18.030033455085754Q10.62000036239624,18.858433455085756,11.20579036239624,19.444233455085755Q11.79157336239624,20.030033455085754,12.62000036239624,20.030033455085754L21.30821036239624,20.030033455085754Q22.129700362396242,20.030033455085754,22.66430036239624,19.340733455085754Q23.10860036239624,18.767933455085753,23.10860036239624,17.998233455085753L23.10960036239624,17.995333455085753Q23.178700362396242,16.669633455085755,22.76190036239624,15.051933455085754Q21.98620036239624,12.041133455085754,19.73296036239624,8.832753455085754Q17.23599036239624,5.277253455085754,14.95623036239624,2.9345234550857544Q13.99114036239624,1.9427682550857543,13.30377036239624,1.4297504550857543ZM12.62000036239624,3.4559434550857544L12.62000036239624,18.030033455085754L21.10762036239624,18.030033455085754Q21.10860036239624,18.015233455085756,21.10860036239624,17.998233455085753Q21.10860036239624,17.961633455085753,21.11228036239624,17.891133455085754Q21.165470362396242,16.871733455085753,20.825170362396243,15.550933455085755Q20.14030036239624,12.892733455085754,18.09626036239624,9.982193455085755Q15.69116036239624,6.557513455085754,13.52288036239624,4.329343455085755Q13.02066036239624,3.8132434550857544,12.62000036239624,3.4559434550857544Z" fill-rule="evenodd" fill="#D0D3DE" fill-opacity="1"/></g></g></g></svg>