<svg xmlns="http://www.w3.org/2000/svg" xmlns:xlink="http://www.w3.org/1999/xlink" fill="none" version="1.1" width="24" height="24" viewBox="0 0 24 24"><g><g></g><g><path d="M3,8.321873349990845C3,6.688913349990845,3.9926120000000003,5.219903349990845,5.50767,4.6106733499908445C5.50767,4.6106733499908445,10.507670000000001,2.6000913499908447,10.507670000000001,2.6000913499908447C11.46529,2.2150141499908447,12.53471,2.2150141499908447,13.4923,2.6000913499908447C13.4923,2.6000913499908447,18.4923,4.6106733499908445,18.4923,4.6106733499908445C20.0074,5.219903349990845,21,6.688913349990845,21,8.321873349990845C21,8.321873349990845,21,16.999983349990845,21,16.999983349990845C21,19.209083349990845,19.2091,20.999983349990845,17,20.999983349990845C17,20.999983349990845,7,20.999983349990845,7,20.999983349990845C4.79086,20.999983349990845,3,19.209083349990845,3,16.999983349990845C3,16.999983349990845,3,8.321873349990845,3,8.321873349990845C3,8.321873349990845,3,8.321873349990845,3,8.321873349990845Z" fill-rule="evenodd" fill="#D0D3DE" fill-opacity="1"/><path d="M2,8.321873349990845L2,16.999983349990845Q2,19.071083349990843,3.464463,20.535483349990844Q4.92894,21.999983349990845,7,21.999983349990845L17,21.999983349990845Q19.071,21.999983349990845,20.5355,20.535483349990844Q22,19.071083349990843,22,16.999983349990845L22,8.321873349990845Q22,6.790963349990845,21.1429,5.522493349990844Q20.2858,4.254013349990845,18.8654,3.682873349990845L13.8654,1.6722973499908447Q12.00001,0.9221733499908447,10.13459,1.6722933499908448L5.13459,3.682873349990845Q3.714221,4.254023349990844,2.85711,5.522503349990845Q2,6.7909733499908445,2,8.321873349990845ZM4.87868,19.121283349990843Q4,18.242583349990845,4,16.999983349990845L4,8.321873349990845Q4,7.403333349990845,4.51427,6.642243349990845Q5.02853,5.881163349990844,5.88075,5.538473349990845L10.880749999999999,3.527893349990845Q12,3.077818349990845,13.1192,3.5278833499908444L18.1192,5.538473349990845Q18.9715,5.881163349990844,19.4857,6.642243349990845Q20,7.403323349990845,20,8.321873349990845L20,16.999983349990845Q20,18.242583349990845,19.1213,19.121283349990843Q18.2426,19.999983349990845,17,19.999983349990845L7,19.999983349990845Q5.75737,19.999983349990845,4.87868,19.121283349990843Z" fill-rule="evenodd" fill="#D0D3DE" fill-opacity="1"/></g><g><rect x="8" y="15" width="8" height="2" rx="1" fill="#FFFFFF" fill-opacity="1"/></g></g></svg>