<svg xmlns="http://www.w3.org/2000/svg" xmlns:xlink="http://www.w3.org/1999/xlink" fill="none" version="1.1" width="24" height="24" viewBox="0 0 24 24"><g><g></g><g><ellipse cx="12" cy="12" rx="9.5" ry="9.5" fill="#5F2AFF" fill-opacity="1"/><ellipse cx="12" cy="12" rx="9.5" ry="9.5" fill-opacity="0" stroke-opacity="1" stroke="#5F2AFF" fill="none" stroke-width="2"/></g><g><path d="M9.587016148986816,13.782993433532715C9.258336148986816,13.339161233532716,8.632094148986816,13.245811433532715,8.188261148986816,13.574490433532715C7.744428948986816,13.903170433532715,7.651079148986817,14.529418433532715,7.979758148986816,14.973248433532715C7.979758148986816,14.973248433532715,9.587016148986816,13.782993433532715,9.587016148986816,13.782993433532715C9.587016148986816,13.782993433532715,9.587016148986816,13.782993433532715,9.587016148986816,13.782993433532715ZM16.020236148986818,14.973248433532715C16.348916148986817,14.529418433532715,16.255566148986816,13.903170433532715,15.811736148986816,13.574490433532715C15.367906148986815,13.245811433532715,14.741656148986817,13.339161233532716,14.412976148986816,13.782993433532715C14.412976148986816,13.782993433532715,16.020236148986818,14.973248433532715,16.020236148986818,14.973248433532715C16.020236148986818,14.973248433532715,16.020236148986818,14.973248433532715,16.020236148986818,14.973248433532715ZM7.979758148986816,14.973248433532715C8.888926148986815,16.200938433532716,10.351246148986817,16.999998433532713,11.999996148986817,16.999998433532713C11.999996148986817,16.999998433532713,11.999996148986817,14.999998433532715,11.999996148986817,14.999998433532715C11.011846148986816,14.999998433532715,10.135236148986817,14.523278433532715,9.587016148986816,13.782993433532715C9.587016148986816,13.782993433532715,7.979758148986816,14.973248433532715,7.979758148986816,14.973248433532715C7.979758148986816,14.973248433532715,7.979758148986816,14.973248433532715,7.979758148986816,14.973248433532715ZM11.999996148986817,16.999998433532713C13.648746148986817,16.999998433532713,15.111076148986816,16.200938433532716,16.020236148986818,14.973248433532715C16.020236148986818,14.973248433532715,14.412976148986816,13.782993433532715,14.412976148986816,13.782993433532715C13.864756148986817,14.523278433532715,12.988146148986816,14.999998433532715,11.999996148986817,14.999998433532715C11.999996148986817,14.999998433532715,11.999996148986817,16.999998433532713,11.999996148986817,16.999998433532713C11.999996148986817,16.999998433532713,11.999996148986817,16.999998433532713,11.999996148986817,16.999998433532713Z" fill="#FFFFFF" fill-opacity="1"/></g></g></svg>