<svg xmlns="http://www.w3.org/2000/svg" xmlns:xlink="http://www.w3.org/1999/xlink" fill="none" version="1.1" width="26.60009765625" height="24.5999755859375" viewBox="0 0 26.60009765625 24.5999755859375"><g><g></g><g><ellipse cx="10.5" cy="10.5" rx="9.5" ry="9.5" fill="#5F2AFF" fill-opacity="1"/></g><g><path d="M10.5,7C11.05228,7,11.5,6.55228,11.5,6C11.5,5.447715,11.05228,5,10.5,5C10.5,5,10.5,7,10.5,7C10.5,7,10.5,7,10.5,7ZM5,10.5C5,11.05228,5.447715,11.5,6,11.5C6.55228,11.5,7,11.05228,7,10.5C7,10.5,5,10.5,5,10.5C5,10.5,5,10.5,5,10.5ZM10.5,5C7.4624299999999995,5,5,7.4624299999999995,5,10.5C5,10.5,7,10.5,7,10.5C7,8.567,8.567,7,10.5,7C10.5,7,10.5,5,10.5,5C10.5,5,10.5,5,10.5,5Z" fill="#FFFFFF" fill-opacity="1"/></g><g transform="matrix(-1,0,0,1,50,0)"><path d="M25 17C25 13.68629150101524 27.68629150101524 11 31 11L31 11C34.31370849898476 11 37 13.68629150101524 37 17L37 17C37 20.31370849898476 34.31370849898476 23 31 23L27 23C25.895430500338414 23 25 22.104569499661586 25 21Z" fill="#5F2AFF" fill-opacity="1"/><path d="M25.80000001192093 17C25.80000001192093 14.128119307463622 28.12811930746362 11.800000011920929 31 11.800000011920929L31 11.800000011920929C33.87188069253638 11.800000011920929 36.19999998807907 14.128119307463622 36.19999998807907 17L36.19999998807907 17C36.19999998807907 19.87188069253638 33.87188069253638 22.19999998807907 31 22.19999998807907L27.80000001192093 22.19999998807907C26.695430512259342 22.19999998807907 25.80000001192093 21.304569487740658 25.80000001192093 20.19999998807907Z" fill-opacity="0" stroke-opacity="1" stroke="#FFFFFF" fill="none" stroke-width="1.600000023841858"/></g></g></svg>