<svg xmlns="http://www.w3.org/2000/svg" xmlns:xlink="http://www.w3.org/1999/xlink" fill="none" version="1.1" width="24" height="24" viewBox="0 0 24 24"><g><g></g><g><g><path d="M8.000001428070068,7.57757568359375C8.000001428070068,7.57757568359375,8.000001428070068,18.02757568359375,8.000001428070068,18.02757568359375C8.000001428070068,18.579875683593748,7.552281428070068,19.02757568359375,7.000001428070068,19.02757568359375C7.000001428070068,19.02757568359375,4.190091428070068,19.02757568359375,4.190091428070068,19.02757568359375C3.3331504280700686,19.02757568359375,2.8438794280700685,17.995875683593752,3.3476604280700686,17.30260568359375C4.008640428070068,16.39306568359375,4.806041428070069,15.19921568359375,5.482421428070069,13.90844568359375C6.9419114280700684,11.12325568359375,8.000001428070068,7.57757568359375,8.000001428070068,7.57757568359375C8.000001428070068,7.57757568359375,8.000001428070068,7.57757568359375,8.000001428070068,7.57757568359375Z" fill-rule="evenodd" fill="#5F2AFF" fill-opacity="1"/><path d="M6.348241428070068,9.35814568359375Q5.477391428070068,11.76357568359375,4.596661428070068,13.44429568359375Q3.772715428070068,15.01667568359375,2.5386934280700686,16.714745683593748Q1.8077414280700683,17.72067568359375,2.358167428070068,18.86007568359375Q2.6051084280700683,19.37127568359375,3.0646023280700683,19.68297568359375Q3.572377428070068,20.02757568359375,4.190091428070068,20.02757568359375L7.000001428070068,20.02757568359375Q7.828421428070069,20.02757568359375,8.414211428070068,19.44177568359375Q9.000001428070068,18.855975683593748,9.000001428070068,18.02757568359375L9.000001428070068,7.57757568359375Q9.000001428070068,7.49735468359375,8.987211428070069,7.41815968359375Q8.97442142807007,7.33896468359375,8.949171428070068,7.26282068359375Q8.923921428070068,7.18667768359375,8.886861428070068,7.1155326835937505Q8.849791428070068,7.04438868359375,8.801861428070069,6.98006268359375Q8.753921428070068,6.91573668359375,8.696351428070068,6.85987468359375Q8.638771428070068,6.80401268359375,8.573031428070069,6.75804368359375Q8.507291428070069,6.71207368359375,8.435061428070068,6.67717368359375Q8.362831428070068,6.64227268359375,8.285951428070067,6.6193326835937505Q8.095351428070067,6.56245568359375,7.897481428070068,6.58284468359375Q7.699621428070069,6.60323568359375,7.524621428070068,6.69779468359375Q7.349621428070068,6.79235368359375,7.224131428070068,6.94668368359375Q7.098641428070069,7.10101368359375,7.041761428070068,7.29162068359375Q6.785441428070069,8.15054568359375,6.348241428070068,9.35814568359375ZM4.156631428070068,17.89047568359375Q5.476461428070069,16.07430568359375,6.368181428070068,14.372595683593751Q6.685591428070069,13.76685568359375,7.000001428070068,13.07827568359375L7.000001428070068,18.02757568359375L4.190091428070068,18.02757568359375Q4.177151428070069,18.02757568359375,4.1590414280700685,17.99007568359375Q4.1291704280700685,17.92827568359375,4.156631428070068,17.89047568359375Z" fill-rule="evenodd" fill="#5F2AFF" fill-opacity="1"/></g><g><rect x="6" y="21.497654914855957" width="12" height="2" rx="1" fill="#5F2AFF" fill-opacity="1"/></g><g><path d="M11.62000036239624,2.7618463358764647C11.62000036239624,2.7618463358764647,11.62000036239624,18.030033335876464,11.62000036239624,18.030033335876464C11.62000036239624,18.582333335876466,12.06771536239624,19.030033335876464,12.62000036239624,19.030033335876464C12.62000036239624,19.030033335876464,21.30821036239624,19.030033335876464,21.30821036239624,19.030033335876464C21.75030036239624,19.030033335876464,22.10860036239624,18.568033335876464,22.10860036239624,17.998233335876463C22.10860036239624,17.790333335876465,22.48470036239624,14.490933335876464,18.91461036239624,9.407473335876464C15.344540362396241,4.323973335876465,12.33325836239624,1.5885693358764648,11.96842936239624,1.9103372358764648C11.75038036239624,2.102650335876465,11.62000036239624,2.421278335876465,11.62000036239624,2.7618463358764647C11.62000036239624,2.7618463358764647,11.62000036239624,2.7618463358764647,11.62000036239624,2.7618463358764647Z" fill-rule="evenodd" fill="#5F2AFF" fill-opacity="1"/><path d="M13.30377036239624,1.4297503358764647Q12.05677436239624,0.49905333587646483,11.30697036239624,1.1603573358764647L11.30696836239624,1.1603573358764647Q10.62000036239624,1.7662443358764648,10.62000036239624,2.7618463358764647L10.62000036239624,18.030033335876464Q10.62000036239624,18.858433335876466,11.20579036239624,19.444233335876465Q11.79157336239624,20.030033335876464,12.62000036239624,20.030033335876464L21.30821036239624,20.030033335876464Q22.129700362396242,20.030033335876464,22.66430036239624,19.340733335876465Q23.10860036239624,18.767933335876464,23.10860036239624,17.998233335876463L23.10960036239624,17.995333335876463Q23.178700362396242,16.669633335876465,22.76190036239624,15.051933335876464Q21.98620036239624,12.041133335876465,19.73296036239624,8.832753335876465Q17.23599036239624,5.277253335876464,14.95623036239624,2.934523335876465Q13.99114036239624,1.9427681358764648,13.30377036239624,1.4297503358764647ZM12.62000036239624,3.455943335876465L12.62000036239624,18.030033335876464L21.10762036239624,18.030033335876464Q21.10860036239624,18.015233335876466,21.10860036239624,17.998233335876463Q21.10860036239624,17.961633335876463,21.11228036239624,17.891133335876464Q21.165470362396242,16.871733335876463,20.825170362396243,15.550933335876465Q20.14030036239624,12.892733335876464,18.09626036239624,9.982193335876465Q15.69116036239624,6.557513335876465,13.52288036239624,4.329343335876465Q13.02066036239624,3.813243335876465,12.62000036239624,3.455943335876465Z" fill-rule="evenodd" fill="#5F2AFF" fill-opacity="1"/></g></g></g></svg>