<svg xmlns="http://www.w3.org/2000/svg" xmlns:xlink="http://www.w3.org/1999/xlink" fill="none" version="1.1" width="60" height="60" viewBox="0 0 60 60"><defs><linearGradient x1="-0.5" y1="0.5" x2="0.5" y2="1.5" id="master_svg0__006"><stop offset="0%" stop-color="#FFB266" stop-opacity="1"/><stop offset="100%" stop-color="#FF962A" stop-opacity="1"/></linearGradient></defs><g><g><ellipse cx="30" cy="30" rx="30" ry="30" fill="url(#master_svg0__006)" fill-opacity="1"/></g><g><g></g><g><path d="M30,38Q33.3137,38,35.6569,35.6569Q38,33.3137,38,30L39,30L38.2929,30.70711L29.29289,21.707107L30,21L30,22Q26.68629,22,24.34315,24.34315Q22,26.68629,22,30Q22,33.3137,24.34315,35.6569Q26.68628,38,30,38ZM30,40Q27.96618,40,26.10724,39.2137Q24.31249,38.4546,22.92893,37.0711Q21.545379,35.6875,20.78626,33.8928Q20,32.0338,20,30Q20,27.966169999999998,20.786261,26.10724Q21.545379,24.31249,22.92893,22.92893Q24.31249,21.545379,26.10724,20.786261Q27.966169999999998,20,30,20L30.41421,20L40,29.58579L40,30Q40,32.0338,39.2137,33.8928Q38.4546,35.6875,37.0711,37.0711Q35.6875,38.4546,33.8928,39.2137Q32.0338,40,30,40ZM36.5,22L34,22L34,21L34.7071,20.292893L39.7071,25.29289L39,26L38,26L38,23Q38,22.58579,37.7071,22.29289Q37.4142,22,37,22L36.5,22ZM36.5,20L37,20Q38.242599999999996,20,39.121300000000005,20.87868Q40,21.757358,40,23L40,28.41421L31.5858,20L36.5,20Z" fill="#FFFFFF" fill-opacity="1"/></g><g transform="matrix(0.7071067690849304,-0.7071067690849304,0.7071067690849304,0.7071067690849304,-10.96194033723475,29.778174676906133)"><rect x="30.464466094970703" y="28.121320724487305" width="10" height="2" rx="1" fill="#FFFFFF" fill-opacity="1"/></g></g></g></svg>