<svg xmlns="http://www.w3.org/2000/svg" xmlns:xlink="http://www.w3.org/1999/xlink" fill="none" version="1.1" width="60" height="60" viewBox="0 0 60 60"><defs><linearGradient x1="-0.5" y1="0.5" x2="0.5" y2="1.5" id="master_svg0__005"><stop offset="0%" stop-color="#8C66FF" stop-opacity="1"/><stop offset="100%" stop-color="#5F2AFF" stop-opacity="1"/></linearGradient></defs><g><g><ellipse cx="30" cy="30" rx="30" ry="30" fill="url(#master_svg0__005)" fill-opacity="1"/></g><g><g></g><g><path d="M27.25192,38.1679C27.25192,38.1679,26.69722,39,26.69722,39C26.69722,39,27.25192,38.1679,27.25192,38.1679C27.25192,38.1679,27.25192,38.1679,27.25192,38.1679ZM31.1094,39.260400000000004C31.1094,39.260400000000004,30.5547,38.428399999999996,30.5547,38.428399999999996C30.5547,38.428399999999996,31.1094,39.260400000000004,31.1094,39.260400000000004C31.1094,39.260400000000004,31.1094,39.260400000000004,31.1094,39.260400000000004ZM28.8906,39.260400000000004C28.8906,39.260400000000004,29.4453,38.428399999999996,29.4453,38.428399999999996C29.4453,38.428399999999996,28.8906,39.260400000000004,28.8906,39.260400000000004C28.8906,39.260400000000004,28.8906,39.260400000000004,28.8906,39.260400000000004ZM24,22C24,22,36,22,36,22C36,22,36,20,36,20C36,20,24,20,24,20C24,20,24,22,24,22C24,22,24,22,24,22ZM39,25C39,25,39,34,39,34C39,34,41,34,41,34C41,34,41,25,41,25C41,25,39,25,39,25C39,25,39,25,39,25ZM36,37C36,37,33.3028,37,33.3028,37C33.3028,37,33.3028,39,33.3028,39C33.3028,39,36,39,36,39C36,39,36,37,36,37C36,37,36,37,36,37ZM32.1934,37.335899999999995C32.1934,37.335899999999995,30.5547,38.428399999999996,30.5547,38.428399999999996C30.5547,38.428399999999996,31.664099999999998,40.0925,31.664099999999998,40.0925C31.664099999999998,40.0925,33.3028,39,33.3028,39C33.3028,39,32.1934,37.335899999999995,32.1934,37.335899999999995C32.1934,37.335899999999995,32.1934,37.335899999999995,32.1934,37.335899999999995ZM29.4453,38.428399999999996C29.4453,38.428399999999996,27.806620000000002,37.335899999999995,27.806620000000002,37.335899999999995C27.806620000000002,37.335899999999995,26.69722,39,26.69722,39C26.69722,39,28.335900000000002,40.0924,28.335900000000002,40.0924C28.335900000000002,40.0924,29.4453,38.428399999999996,29.4453,38.428399999999996C29.4453,38.428399999999996,29.4453,38.428399999999996,29.4453,38.428399999999996ZM26.69722,37C26.69722,37,24,37,24,37C24,37,24,39,24,39C24,39,26.69722,39,26.69722,39C26.69722,39,26.69722,37,26.69722,37C26.69722,37,26.69722,37,26.69722,37ZM21,34C21,34,21,25,21,25C21,25,19,25,19,25C19,25,19,34,19,34C19,34,21,34,21,34C21,34,21,34,21,34ZM24,37C22.34315,37,21,35.6569,21,34C21,34,19,34,19,34C19,36.761399999999995,21.23858,39,24,39C24,39,24,37,24,37C24,37,24,37,24,37ZM27.806620000000002,37.335899999999995C27.47809,37.1169,27.09207,37,26.69722,37C26.69722,37,26.69722,39,26.69722,39C26.69722,39,26.69722,39,26.69722,39C26.69722,39,27.806620000000002,37.335899999999995,27.806620000000002,37.335899999999995C27.806620000000002,37.335899999999995,27.806620000000002,37.335899999999995,27.806620000000002,37.335899999999995ZM30.5547,38.428399999999996C30.2188,38.6523,29.7812,38.6523,29.4453,38.428399999999996C29.4453,38.428399999999996,28.335900000000002,40.0924,28.335900000000002,40.0924C29.343600000000002,40.7642,30.656399999999998,40.7642,31.664099999999998,40.0925C31.664099999999998,40.0925,30.5547,38.428399999999996,30.5547,38.428399999999996C30.5547,38.428399999999996,30.5547,38.428399999999996,30.5547,38.428399999999996ZM33.3028,37C32.9079,37,32.5219,37.1169,32.1934,37.335899999999995C32.1934,37.335899999999995,33.3028,39,33.3028,39C33.3028,39,33.3028,39,33.3028,39C33.3028,39,33.3028,37,33.3028,37C33.3028,37,33.3028,37,33.3028,37ZM39,34C39,35.6569,37.6569,37,36,37C36,37,36,39,36,39C38.761399999999995,39,41,36.761399999999995,41,34C41,34,39,34,39,34C39,34,39,34,39,34ZM36,22C37.6569,22,39,23.34315,39,25C39,25,41,25,41,25C41,22.23858,38.761399999999995,20,36,20C36,20,36,22,36,22C36,22,36,22,36,22ZM24,20C21.23858,20,19,22.23858,19,25C19,25,21,25,21,25C21,23.34315,22.34315,22,24,22C24,22,24,20,24,20C24,20,24,20,24,20Z" fill="#FFFFFF" fill-opacity="1"/></g><g><rect x="26" y="27" width="8" height="2" rx="1" fill="#FFFFFF" fill-opacity="1"/></g></g></g></svg>