<svg xmlns="http://www.w3.org/2000/svg" xmlns:xlink="http://www.w3.org/1999/xlink" fill="none" version="1.1" width="60" height="60" viewBox="0 0 60 60"><defs><linearGradient x1="-0.5" y1="0.5" x2="0.5" y2="1.5" id="master_svg0__008"><stop offset="0%" stop-color="#66D2FF" stop-opacity="1"/><stop offset="100%" stop-color="#2AC1FF" stop-opacity="1"/></linearGradient></defs><g><g><ellipse cx="30" cy="30" rx="30" ry="30" fill="url(#master_svg0__008)" fill-opacity="1"/></g><g><g></g><g><path d="M29.845000557899475,21.52936047683716L29.951900557899474,21.609180476837157L29.951900557899474,21.60921047683716L30.001600557899476,21.55957047683716L30.050400557899476,21.608500476837158L30.050400557899476,21.60847047683716C32.72370055789948,19.60422247683716,36.532900557899474,19.817732476837158,38.964200557899474,22.249000476837157C41.39540055789948,24.68027047683716,41.608900557899474,28.489500476837158,39.60470055789948,31.16280047683716L39.65360055789948,31.21160047683716L38.23940055789947,32.625800476837156L31.380400557899478,39.48470047683716C30.618900557899476,40.24620047683716,29.384200557899476,40.24620047683716,28.622720557899477,39.48470047683716L21.763790557899476,32.625800476837156L20.349570557899476,31.21160047683716L20.398500557899474,31.16280047683716L20.398440557899477,31.16270047683716C18.394224557899474,28.489430476837157,18.607742557899474,24.68025047683716,21.039000557899474,22.249000476837157C23.437790557899476,19.85020047683716,27.177970557899474,19.61032047683716,29.845000557899475,21.52936047683716Z" fill-rule="evenodd" fill="#FFFFFF" fill-opacity="1"/></g></g></g></svg>